# xmcd
#
# Track frame offsets: 
#        187
#        13142
#        29587
#        45642
#        61237
#        76227
#        94657
#        112272
#        129277
#
# Disc length: 1967 seconds
#
# Revision: 1
# Processed by: cddbd v1.4PL0 Copyright (c) Steve Scherf et al.
# Submitted via: ExactAudioCopy v0.90a11
#
DISCID=7007ad09
DTITLE=Michael Johnson - The Best Of Michael Johnson
DYEAR=1900
DGENRE=
TTITLE0=Gotta Learn To Love Without You
TTITLE1=Give Me Wings
TTITLE2=I Will Whisper Your Name
TTITLE3=Crying Shame
TTITLE4=Life's A Bitch (And Then You Die)
TTITLE5=Ponies
TTITLE6=The Moon Is Still Over Her Sholder
TTITLE7=Roller Coaster Run (Up Too Slow, Down Too Fast)
TTITLE8=That's That
EXTD=
EXTT0=
EXTT1=
EXTT2=
EXTT3=
EXTT4=
EXTT5=
EXTT6=
EXTT7=
EXTT8=
PLAYORDER=
